<mxfile host="app.diagrams.net" agent="Mozilla/5.0 (Windows NT 10.0; Win64; x64) AppleWebKit/537.36 (KHTML, like Gecko) Chrome/132.0.0.0 YaBrowser/25.2.0.0 Safari/537.36" version="26.1.0">
  <diagram name="Страница — 1" id="8XiAYbr2dfd4gbRwed16">
    <mxGraphModel dx="2100" dy="1228" grid="1" gridSize="10" guides="1" tooltips="1" connect="1" arrows="1" fold="1" page="1" pageScale="1" pageWidth="851" pageHeight="615" math="0" shadow="0">
      <root>
        <mxCell id="0" />
        <mxCell id="1" parent="0" />
        <mxCell id="Mb2bUKKj8XJ_yCqXp5oP-1" style="edgeStyle=orthogonalEdgeStyle;rounded=0;orthogonalLoop=1;jettySize=auto;html=1;exitX=0.75;exitY=1;exitDx=0;exitDy=0;entryX=0;entryY=0.5;entryDx=0;entryDy=0;" parent="1" source="Mb2bUKKj8XJ_yCqXp5oP-3" target="Mb2bUKKj8XJ_yCqXp5oP-5" edge="1">
          <mxGeometry relative="1" as="geometry" />
        </mxCell>
        <mxCell id="Mb2bUKKj8XJ_yCqXp5oP-2" style="edgeStyle=orthogonalEdgeStyle;rounded=0;orthogonalLoop=1;jettySize=auto;html=1;exitX=0.25;exitY=1;exitDx=0;exitDy=0;entryX=0;entryY=0.5;entryDx=0;entryDy=0;" parent="1" source="Mb2bUKKj8XJ_yCqXp5oP-3" target="Mb2bUKKj8XJ_yCqXp5oP-11" edge="1">
          <mxGeometry relative="1" as="geometry" />
        </mxCell>
        <mxCell id="Mb2bUKKj8XJ_yCqXp5oP-3" value="Внешние системы" style="rounded=0;whiteSpace=wrap;html=1;rotation=-90;" parent="1" vertex="1">
          <mxGeometry x="140" y="310" width="120" height="40" as="geometry" />
        </mxCell>
        <mxCell id="Mb2bUKKj8XJ_yCqXp5oP-4" value="Подсистема обработки, хранения и поддержки БД" style="swimlane;fontStyle=0;childLayout=stackLayout;horizontal=1;startSize=36;fillColor=none;horizontalStack=0;resizeParent=1;resizeParentMax=0;resizeLast=0;collapsible=1;marginBottom=0;whiteSpace=wrap;html=1;" parent="1" vertex="1">
          <mxGeometry x="350" y="84" width="250" height="70" as="geometry" />
        </mxCell>
        <mxCell id="Mb2bUKKj8XJ_yCqXp5oP-5" value="&lt;font face=&quot;Helvetica&quot; style=&quot;&quot;&gt;Создание резервных копий&lt;br&gt;в соответствии с графиком&lt;/font&gt;" style="text;strokeColor=none;fillColor=none;align=left;verticalAlign=top;spacingLeft=4;spacingRight=4;overflow=hidden;rotatable=0;points=[[0,0.5],[1,0.5]];portConstraint=eastwest;whiteSpace=wrap;html=1;" parent="Mb2bUKKj8XJ_yCqXp5oP-4" vertex="1">
          <mxGeometry y="36" width="250" height="34" as="geometry" />
        </mxCell>
        <mxCell id="Mb2bUKKj8XJ_yCqXp5oP-7" value="Администратор" style="shape=umlActor;verticalLabelPosition=bottom;verticalAlign=top;html=1;" parent="1" vertex="1">
          <mxGeometry x="634" y="10" width="30" height="60" as="geometry" />
        </mxCell>
        <mxCell id="Mb2bUKKj8XJ_yCqXp5oP-8" style="edgeStyle=orthogonalEdgeStyle;rounded=0;orthogonalLoop=1;jettySize=auto;html=1;exitX=1.001;exitY=0.085;exitDx=0;exitDy=0;exitPerimeter=0;entryX=0.515;entryY=1.087;entryDx=0;entryDy=0;entryPerimeter=0;" parent="1" source="Mb2bUKKj8XJ_yCqXp5oP-9" target="RyY9v7aFg07JbBqogmVh-4" edge="1">
          <mxGeometry relative="1" as="geometry">
            <mxPoint x="830" y="260" as="targetPoint" />
            <Array as="points">
              <mxPoint x="830" y="301" />
              <mxPoint x="830" y="223" />
            </Array>
          </mxGeometry>
        </mxCell>
        <mxCell id="Mb2bUKKj8XJ_yCqXp5oP-9" value="Подсистема поддержки" style="swimlane;fontStyle=0;childLayout=stackLayout;horizontal=1;startSize=26;fillColor=none;horizontalStack=0;resizeParent=1;resizeParentMax=0;resizeLast=0;collapsible=1;marginBottom=0;whiteSpace=wrap;html=1;" parent="1" vertex="1">
          <mxGeometry x="350" y="286" width="260" height="170" as="geometry" />
        </mxCell>
        <mxCell id="Mb2bUKKj8XJ_yCqXp5oP-10" value="Отправка уведомлений о сбоях в работе системы." style="text;strokeColor=none;fillColor=none;align=left;verticalAlign=top;spacingLeft=4;spacingRight=4;overflow=hidden;rotatable=0;points=[[0,0.5],[1,0.5]];portConstraint=eastwest;whiteSpace=wrap;html=1;" parent="Mb2bUKKj8XJ_yCqXp5oP-9" vertex="1">
          <mxGeometry y="26" width="260" height="34" as="geometry" />
        </mxCell>
        <mxCell id="Mb2bUKKj8XJ_yCqXp5oP-11" value="Ведение логов ошибок и администрирование системы" style="text;strokeColor=none;fillColor=none;align=left;verticalAlign=top;spacingLeft=4;spacingRight=4;overflow=hidden;rotatable=0;points=[[0,0.5],[1,0.5]];portConstraint=eastwest;whiteSpace=wrap;html=1;" parent="Mb2bUKKj8XJ_yCqXp5oP-9" vertex="1">
          <mxGeometry y="60" width="260" height="30" as="geometry" />
        </mxCell>
        <mxCell id="Mb2bUKKj8XJ_yCqXp5oP-71" value="Помощь пользователям в решении спорных ситуаций." style="text;strokeColor=none;fillColor=none;align=left;verticalAlign=top;spacingLeft=4;spacingRight=4;overflow=hidden;rotatable=0;points=[[0,0.5],[1,0.5]];portConstraint=eastwest;whiteSpace=wrap;html=1;" parent="Mb2bUKKj8XJ_yCqXp5oP-9" vertex="1">
          <mxGeometry y="90" width="260" height="40" as="geometry" />
        </mxCell>
        <mxCell id="Mb2bUKKj8XJ_yCqXp5oP-12" value="Консультация пользователей, восстановление доступа" style="text;strokeColor=none;fillColor=none;align=left;verticalAlign=top;spacingLeft=4;spacingRight=4;overflow=hidden;rotatable=0;points=[[0,0.5],[1,0.5]];portConstraint=eastwest;whiteSpace=wrap;html=1;" parent="Mb2bUKKj8XJ_yCqXp5oP-9" vertex="1">
          <mxGeometry y="130" width="260" height="40" as="geometry" />
        </mxCell>
        <mxCell id="Mb2bUKKj8XJ_yCqXp5oP-80" style="edgeStyle=orthogonalEdgeStyle;rounded=0;orthogonalLoop=1;jettySize=auto;html=1;exitX=1.005;exitY=0.14;exitDx=0;exitDy=0;exitPerimeter=0;entryX=-0.011;entryY=0.939;entryDx=0;entryDy=0;entryPerimeter=0;" parent="1" target="Mb2bUKKj8XJ_yCqXp5oP-78" edge="1">
          <mxGeometry relative="1" as="geometry">
            <Array as="points" />
            <mxPoint x="971.415" y="124.75999999999999" as="sourcePoint" />
            <mxPoint x="1070" y="101" as="targetPoint" />
          </mxGeometry>
        </mxCell>
        <mxCell id="Mb2bUKKj8XJ_yCqXp5oP-13" value="Подсистема работы с БД" style="swimlane;fontStyle=0;childLayout=stackLayout;horizontal=1;startSize=26;fillColor=none;horizontalStack=0;resizeParent=1;resizeParentMax=0;resizeLast=0;collapsible=1;marginBottom=0;whiteSpace=wrap;html=1;" parent="1" vertex="1">
          <mxGeometry x="687" y="94" width="283" height="126" as="geometry">
            <mxRectangle x="687" y="94" width="180" height="30" as="alternateBounds" />
          </mxGeometry>
        </mxCell>
        <mxCell id="Mb2bUKKj8XJ_yCqXp5oP-47" value="&lt;span style=&quot;color: rgb(0, 0, 0); font-family: Helvetica; font-size: 12px; font-style: normal; font-variant-ligatures: normal; font-variant-caps: normal; font-weight: 400; letter-spacing: normal; orphans: 2; text-align: left; text-indent: 0px; text-transform: none; widows: 2; word-spacing: 0px; -webkit-text-stroke-width: 0px; white-space: normal; background-color: rgb(251, 251, 251); text-decoration-thickness: initial; text-decoration-style: initial; text-decoration-color: initial; float: none; display: inline !important;&quot;&gt;&amp;nbsp;Выгрузка данных в оперативную память.&lt;/span&gt;" style="text;whiteSpace=wrap;html=1;" parent="Mb2bUKKj8XJ_yCqXp5oP-13" vertex="1">
          <mxGeometry y="26" width="283" height="20" as="geometry" />
        </mxCell>
        <mxCell id="Mb2bUKKj8XJ_yCqXp5oP-15" value="Графическое отображение данных." style="text;strokeColor=none;fillColor=none;align=left;verticalAlign=top;spacingLeft=4;spacingRight=4;overflow=hidden;rotatable=0;points=[[0,0.5],[1,0.5]];portConstraint=eastwest;whiteSpace=wrap;html=1;" parent="Mb2bUKKj8XJ_yCqXp5oP-13" vertex="1">
          <mxGeometry y="46" width="283" height="40" as="geometry" />
        </mxCell>
        <mxCell id="RyY9v7aFg07JbBqogmVh-4" value="Данные курса" style="text;strokeColor=none;fillColor=none;align=left;verticalAlign=top;spacingLeft=4;spacingRight=4;overflow=hidden;rotatable=0;points=[[0,0.5],[1,0.5]];portConstraint=eastwest;whiteSpace=wrap;html=1;" vertex="1" parent="Mb2bUKKj8XJ_yCqXp5oP-13">
          <mxGeometry y="86" width="283" height="40" as="geometry" />
        </mxCell>
        <mxCell id="Mb2bUKKj8XJ_yCqXp5oP-16" style="edgeStyle=orthogonalEdgeStyle;rounded=0;orthogonalLoop=1;jettySize=auto;html=1;exitX=0.5;exitY=0;exitDx=0;exitDy=0;entryX=0.52;entryY=0.999;entryDx=0;entryDy=0;entryPerimeter=0;" parent="1" source="Mb2bUKKj8XJ_yCqXp5oP-9" edge="1">
          <mxGeometry relative="1" as="geometry">
            <mxPoint x="480" y="193.96000000000004" as="targetPoint" />
          </mxGeometry>
        </mxCell>
        <mxCell id="Mb2bUKKj8XJ_yCqXp5oP-17" style="edgeStyle=orthogonalEdgeStyle;rounded=0;orthogonalLoop=1;jettySize=auto;html=1;exitX=1;exitY=0.5;exitDx=0;exitDy=0;entryX=0;entryY=0.5;entryDx=0;entryDy=0;" parent="1" source="Mb2bUKKj8XJ_yCqXp5oP-5" edge="1">
          <mxGeometry relative="1" as="geometry">
            <mxPoint x="687" y="136.9999999999999" as="targetPoint" />
          </mxGeometry>
        </mxCell>
        <mxCell id="Mb2bUKKj8XJ_yCqXp5oP-19" value="Подсистема поиска и просмотра" style="swimlane;fontStyle=0;childLayout=stackLayout;horizontal=1;startSize=26;fillColor=none;horizontalStack=0;resizeParent=1;resizeParentMax=0;resizeLast=0;collapsible=1;marginBottom=0;whiteSpace=wrap;html=1;" parent="1" vertex="1">
          <mxGeometry x="760" y="442" width="240" height="170" as="geometry" />
        </mxCell>
        <mxCell id="Mb2bUKKj8XJ_yCqXp5oP-20" value="Возможность просмотра всех зарегистрированных полей." style="text;strokeColor=none;fillColor=none;align=left;verticalAlign=top;spacingLeft=4;spacingRight=4;overflow=hidden;rotatable=0;points=[[0,0.5],[1,0.5]];portConstraint=eastwest;whiteSpace=wrap;html=1;" parent="Mb2bUKKj8XJ_yCqXp5oP-19" vertex="1">
          <mxGeometry y="26" width="240" height="44" as="geometry" />
        </mxCell>
        <mxCell id="RyY9v7aFg07JbBqogmVh-1" value="Обеспечивает доступность функций поиска и фильтрации для студентов, менторов и HR" style="text;strokeColor=none;fillColor=none;align=left;verticalAlign=top;spacingLeft=4;spacingRight=4;overflow=hidden;rotatable=0;points=[[0,0.5],[1,0.5]];portConstraint=eastwest;whiteSpace=wrap;html=1;" vertex="1" parent="Mb2bUKKj8XJ_yCqXp5oP-19">
          <mxGeometry y="70" width="240" height="50" as="geometry" />
        </mxCell>
        <mxCell id="Mb2bUKKj8XJ_yCqXp5oP-21" value="Контроль корректности отображения данных о курсах, профилях менторов и вакансиях стажировок" style="text;strokeColor=none;fillColor=none;align=left;verticalAlign=top;spacingLeft=4;spacingRight=4;overflow=hidden;rotatable=0;points=[[0,0.5],[1,0.5]];portConstraint=eastwest;whiteSpace=wrap;html=1;" parent="Mb2bUKKj8XJ_yCqXp5oP-19" vertex="1">
          <mxGeometry y="120" width="240" height="50" as="geometry" />
        </mxCell>
        <mxCell id="Mb2bUKKj8XJ_yCqXp5oP-24" value="Служба поддержки" style="shape=umlActor;verticalLabelPosition=bottom;verticalAlign=top;html=1;" parent="1" vertex="1">
          <mxGeometry x="410" y="472" width="30" height="60" as="geometry" />
        </mxCell>
        <mxCell id="Mb2bUKKj8XJ_yCqXp5oP-25" value="Пользователь&lt;br&gt;(студент, ментор, HR, администратор и т.д.)" style="shape=umlActor;verticalLabelPosition=bottom;verticalAlign=top;html=1;" parent="1" vertex="1">
          <mxGeometry x="780" y="640" width="30" height="60" as="geometry" />
        </mxCell>
        <mxCell id="Mb2bUKKj8XJ_yCqXp5oP-26" value="Подсистема работы с пользователем" style="swimlane;fontStyle=0;childLayout=stackLayout;horizontal=1;startSize=26;fillColor=none;horizontalStack=0;resizeParent=1;resizeParentMax=0;resizeLast=0;collapsible=1;marginBottom=0;whiteSpace=wrap;html=1;" parent="1" vertex="1">
          <mxGeometry x="1120" y="242" width="200" height="200" as="geometry">
            <mxRectangle x="1110" y="240" width="250" height="30" as="alternateBounds" />
          </mxGeometry>
        </mxCell>
        <mxCell id="Mb2bUKKj8XJ_yCqXp5oP-27" value="Регистрация пользователей (студент, ментор, HR, администратор и т.д.)." style="text;strokeColor=none;fillColor=none;align=left;verticalAlign=top;spacingLeft=4;spacingRight=4;overflow=hidden;rotatable=0;points=[[0,0.5],[1,0.5]];portConstraint=eastwest;whiteSpace=wrap;html=1;" parent="Mb2bUKKj8XJ_yCqXp5oP-26" vertex="1">
          <mxGeometry y="26" width="200" height="54" as="geometry" />
        </mxCell>
        <mxCell id="Mb2bUKKj8XJ_yCqXp5oP-28" value="Авторизация пользователей с учётом их роли." style="text;strokeColor=none;fillColor=none;align=left;verticalAlign=top;spacingLeft=4;spacingRight=4;overflow=hidden;rotatable=0;points=[[0,0.5],[1,0.5]];portConstraint=eastwest;whiteSpace=wrap;html=1;" parent="Mb2bUKKj8XJ_yCqXp5oP-26" vertex="1">
          <mxGeometry y="80" width="200" height="40" as="geometry" />
        </mxCell>
        <mxCell id="Mb2bUKKj8XJ_yCqXp5oP-29" value="Использование личного кабинета пользователя." style="text;strokeColor=none;fillColor=none;align=left;verticalAlign=top;spacingLeft=4;spacingRight=4;overflow=hidden;rotatable=0;points=[[0,0.5],[1,0.5]];portConstraint=eastwest;whiteSpace=wrap;html=1;" parent="Mb2bUKKj8XJ_yCqXp5oP-26" vertex="1">
          <mxGeometry y="120" width="200" height="40" as="geometry" />
        </mxCell>
        <mxCell id="Mb2bUKKj8XJ_yCqXp5oP-30" value="Настройки уведомлений и управления участками." style="text;strokeColor=none;fillColor=none;align=left;verticalAlign=top;spacingLeft=4;spacingRight=4;overflow=hidden;rotatable=0;points=[[0,0.5],[1,0.5]];portConstraint=eastwest;whiteSpace=wrap;html=1;" parent="Mb2bUKKj8XJ_yCqXp5oP-26" vertex="1">
          <mxGeometry y="160" width="200" height="40" as="geometry" />
        </mxCell>
        <mxCell id="Mb2bUKKj8XJ_yCqXp5oP-33" style="edgeStyle=orthogonalEdgeStyle;rounded=0;orthogonalLoop=1;jettySize=auto;html=1;exitX=0;exitY=0.5;exitDx=0;exitDy=0;entryX=1;entryY=0.5;entryDx=0;entryDy=0;" parent="1" source="Mb2bUKKj8XJ_yCqXp5oP-28" target="Mb2bUKKj8XJ_yCqXp5oP-21" edge="1">
          <mxGeometry relative="1" as="geometry" />
        </mxCell>
        <mxCell id="Mb2bUKKj8XJ_yCqXp5oP-34" style="edgeStyle=orthogonalEdgeStyle;rounded=0;orthogonalLoop=1;jettySize=auto;html=1;entryX=0;entryY=0.5;entryDx=0;entryDy=0;" parent="1" target="Mb2bUKKj8XJ_yCqXp5oP-27" edge="1">
          <mxGeometry relative="1" as="geometry">
            <mxPoint x="970" y="190" as="sourcePoint" />
            <Array as="points">
              <mxPoint x="970" y="190" />
              <mxPoint x="1045" y="190" />
              <mxPoint x="1045" y="295" />
            </Array>
          </mxGeometry>
        </mxCell>
        <mxCell id="Mb2bUKKj8XJ_yCqXp5oP-72" style="edgeStyle=orthogonalEdgeStyle;rounded=0;orthogonalLoop=1;jettySize=auto;html=1;entryX=0.578;entryY=1.018;entryDx=0;entryDy=0;entryPerimeter=0;exitX=0;exitY=0.3333333333333333;exitDx=0;exitDy=0;exitPerimeter=0;" parent="1" source="Mb2bUKKj8XJ_yCqXp5oP-49" target="Mb2bUKKj8XJ_yCqXp5oP-12" edge="1">
          <mxGeometry relative="1" as="geometry">
            <mxPoint x="500" y="470" as="targetPoint" />
            <Array as="points">
              <mxPoint x="500" y="492" />
            </Array>
          </mxGeometry>
        </mxCell>
        <mxCell id="Mb2bUKKj8XJ_yCqXp5oP-49" value="Администратор" style="shape=umlActor;verticalLabelPosition=bottom;verticalAlign=top;html=1;" parent="1" vertex="1">
          <mxGeometry x="520" y="472" width="30" height="60" as="geometry" />
        </mxCell>
        <mxCell id="Mb2bUKKj8XJ_yCqXp5oP-53" style="edgeStyle=orthogonalEdgeStyle;rounded=0;orthogonalLoop=1;jettySize=auto;html=1;entryX=0.17;entryY=0.008;entryDx=0;entryDy=0;entryPerimeter=0;exitX=1;exitY=0.3333333333333333;exitDx=0;exitDy=0;exitPerimeter=0;" parent="1" source="Mb2bUKKj8XJ_yCqXp5oP-7" target="Mb2bUKKj8XJ_yCqXp5oP-13" edge="1">
          <mxGeometry relative="1" as="geometry" />
        </mxCell>
        <mxCell id="Mb2bUKKj8XJ_yCqXp5oP-54" style="edgeStyle=orthogonalEdgeStyle;rounded=0;orthogonalLoop=1;jettySize=auto;html=1;entryX=0.81;entryY=-0.013;entryDx=0;entryDy=0;entryPerimeter=0;exitX=0;exitY=0.3333333333333333;exitDx=0;exitDy=0;exitPerimeter=0;" parent="1" source="Mb2bUKKj8XJ_yCqXp5oP-7" target="Mb2bUKKj8XJ_yCqXp5oP-4" edge="1">
          <mxGeometry relative="1" as="geometry" />
        </mxCell>
        <mxCell id="Mb2bUKKj8XJ_yCqXp5oP-61" style="edgeStyle=orthogonalEdgeStyle;rounded=0;orthogonalLoop=1;jettySize=auto;html=1;exitX=1;exitY=0.3333333333333333;exitDx=0;exitDy=0;exitPerimeter=0;" parent="1" source="Mb2bUKKj8XJ_yCqXp5oP-25" edge="1">
          <mxGeometry relative="1" as="geometry">
            <mxPoint x="840" y="610" as="targetPoint" />
          </mxGeometry>
        </mxCell>
        <mxCell id="Mb2bUKKj8XJ_yCqXp5oP-65" style="edgeStyle=orthogonalEdgeStyle;rounded=0;orthogonalLoop=1;jettySize=auto;html=1;entryX=0.79;entryY=-0.008;entryDx=0;entryDy=0;entryPerimeter=0;" parent="1" source="Mb2bUKKj8XJ_yCqXp5oP-13" target="Mb2bUKKj8XJ_yCqXp5oP-19" edge="1">
          <mxGeometry relative="1" as="geometry">
            <Array as="points">
              <mxPoint x="950" y="295" />
            </Array>
          </mxGeometry>
        </mxCell>
        <mxCell id="Mb2bUKKj8XJ_yCqXp5oP-66" value="Пользователь&lt;br&gt;(студент, ментор, HR, администратор и т.д.)" style="shape=umlActor;verticalLabelPosition=bottom;verticalAlign=top;html=1;" parent="1" vertex="1">
          <mxGeometry x="1440" y="253" width="30" height="60" as="geometry" />
        </mxCell>
        <mxCell id="Mb2bUKKj8XJ_yCqXp5oP-67" style="edgeStyle=orthogonalEdgeStyle;rounded=0;orthogonalLoop=1;jettySize=auto;html=1;entryX=1.011;entryY=0.105;entryDx=0;entryDy=0;entryPerimeter=0;exitX=0;exitY=0.3333333333333333;exitDx=0;exitDy=0;exitPerimeter=0;" parent="1" source="Mb2bUKKj8XJ_yCqXp5oP-66" target="Mb2bUKKj8XJ_yCqXp5oP-27" edge="1">
          <mxGeometry relative="1" as="geometry" />
        </mxCell>
        <mxCell id="Mb2bUKKj8XJ_yCqXp5oP-69" style="edgeStyle=orthogonalEdgeStyle;rounded=0;orthogonalLoop=1;jettySize=auto;html=1;entryX=1;entryY=0.5;entryDx=0;entryDy=0;exitX=0;exitY=0.3333333333333333;exitDx=0;exitDy=0;exitPerimeter=0;" parent="1" source="Mb2bUKKj8XJ_yCqXp5oP-68" target="Mb2bUKKj8XJ_yCqXp5oP-29" edge="1">
          <mxGeometry relative="1" as="geometry">
            <Array as="points">
              <mxPoint x="1420" y="382" />
            </Array>
          </mxGeometry>
        </mxCell>
        <mxCell id="Mb2bUKKj8XJ_yCqXp5oP-68" value="Администратор" style="shape=umlActor;verticalLabelPosition=bottom;verticalAlign=top;html=1;" parent="1" vertex="1">
          <mxGeometry x="1420" y="362" width="30" height="60" as="geometry" />
        </mxCell>
        <mxCell id="Mb2bUKKj8XJ_yCqXp5oP-74" style="edgeStyle=orthogonalEdgeStyle;rounded=0;orthogonalLoop=1;jettySize=auto;html=1;entryX=0.43;entryY=1.013;entryDx=0;entryDy=0;entryPerimeter=0;exitX=1;exitY=0.3333333333333333;exitDx=0;exitDy=0;exitPerimeter=0;" parent="1" source="Mb2bUKKj8XJ_yCqXp5oP-24" target="Mb2bUKKj8XJ_yCqXp5oP-12" edge="1">
          <mxGeometry relative="1" as="geometry" />
        </mxCell>
        <mxCell id="Mb2bUKKj8XJ_yCqXp5oP-75" value="Подсистема управления образовательным процессом" style="swimlane;fontStyle=0;childLayout=stackLayout;horizontal=1;startSize=26;fillColor=none;horizontalStack=0;resizeParent=1;resizeParentMax=0;resizeLast=0;collapsible=1;marginBottom=0;whiteSpace=wrap;html=1;" parent="1" vertex="1">
          <mxGeometry x="1100" y="60" width="280" height="146" as="geometry">
            <mxRectangle x="687" y="94" width="180" height="30" as="alternateBounds" />
          </mxGeometry>
        </mxCell>
        <mxCell id="Mb2bUKKj8XJ_yCqXp5oP-78" value="Управление курсами и образовательными программами" style="text;strokeColor=none;fillColor=none;align=left;verticalAlign=top;spacingLeft=4;spacingRight=4;overflow=hidden;rotatable=0;points=[[0,0.5],[1,0.5]];portConstraint=eastwest;whiteSpace=wrap;html=1;" parent="Mb2bUKKj8XJ_yCqXp5oP-75" vertex="1">
          <mxGeometry y="26" width="280" height="40" as="geometry" />
        </mxCell>
        <mxCell id="RyY9v7aFg07JbBqogmVh-2" value="Расписание занятий" style="text;strokeColor=none;fillColor=none;align=left;verticalAlign=top;spacingLeft=4;spacingRight=4;overflow=hidden;rotatable=0;points=[[0,0.5],[1,0.5]];portConstraint=eastwest;whiteSpace=wrap;html=1;" vertex="1" parent="Mb2bUKKj8XJ_yCqXp5oP-75">
          <mxGeometry y="66" width="280" height="40" as="geometry" />
        </mxCell>
        <mxCell id="RyY9v7aFg07JbBqogmVh-3" value="&#xa;Контроль успеваемости и статусов&#xa;&#xa;" style="text;strokeColor=none;fillColor=none;align=left;verticalAlign=top;spacingLeft=4;spacingRight=4;overflow=hidden;rotatable=0;points=[[0,0.5],[1,0.5]];portConstraint=eastwest;whiteSpace=wrap;html=1;" vertex="1" parent="Mb2bUKKj8XJ_yCqXp5oP-75">
          <mxGeometry y="106" width="280" height="40" as="geometry" />
        </mxCell>
        <mxCell id="Mb2bUKKj8XJ_yCqXp5oP-79" style="edgeStyle=orthogonalEdgeStyle;rounded=0;orthogonalLoop=1;jettySize=auto;html=1;entryX=0;entryY=0.5;entryDx=0;entryDy=0;" parent="1" source="Mb2bUKKj8XJ_yCqXp5oP-12" target="Mb2bUKKj8XJ_yCqXp5oP-30" edge="1">
          <mxGeometry relative="1" as="geometry">
            <Array as="points">
              <mxPoint x="740" y="422" />
              <mxPoint x="740" y="422" />
            </Array>
          </mxGeometry>
        </mxCell>
        <mxCell id="Mb2bUKKj8XJ_yCqXp5oP-81" value="Пользователь&lt;br&gt;(студент, ментор, HR, администратор и т.д.)" style="shape=umlActor;verticalLabelPosition=bottom;verticalAlign=top;html=1;" parent="1" vertex="1">
          <mxGeometry x="1510" y="51" width="30" height="60" as="geometry" />
        </mxCell>
        <mxCell id="Mb2bUKKj8XJ_yCqXp5oP-82" style="edgeStyle=orthogonalEdgeStyle;rounded=0;orthogonalLoop=1;jettySize=auto;html=1;entryX=0.999;entryY=0.099;entryDx=0;entryDy=0;entryPerimeter=0;exitX=0;exitY=0.3333333333333333;exitDx=0;exitDy=0;exitPerimeter=0;" parent="1" source="Mb2bUKKj8XJ_yCqXp5oP-81" target="Mb2bUKKj8XJ_yCqXp5oP-75" edge="1">
          <mxGeometry relative="1" as="geometry" />
        </mxCell>
      </root>
    </mxGraphModel>
  </diagram>
</mxfile>
